<svg width="493" height="345" viewBox="0 0 493 345" fill="none" xmlns="http://www.w3.org/2000/svg">
<g clip-path="url(#clip0_10_14)">
<path d="M411.654 65H79.2526C70.4407 64.9728 61.9727 68.3694 55.6831 74.4539C52.5745 77.5233 50.1173 81.1724 48.4547 85.1882C46.7922 89.2039 45.9577 93.5059 46 97.8431V244.071C45.9522 248.393 46.7814 252.68 48.439 256.681C50.0966 260.682 52.549 264.316 55.652 267.369C58.7507 270.423 62.4306 272.843 66.4806 274.492C70.5306 276.141 74.8709 276.985 79.2526 276.976H411.654C420.476 276.935 428.923 273.45 435.144 267.282C441.364 261.115 444.853 252.769 444.844 244.071V97.8124C444.877 93.5021 444.042 89.2282 442.387 85.2386C440.732 81.2489 438.29 77.6229 435.202 74.5707C432.115 71.5184 428.444 69.1008 424.402 67.4579C420.359 65.8151 416.026 64.9796 411.654 65Z" fill="white"/>
<path d="M433.169 97.8124C433.202 95.0136 432.669 92.2365 431.6 89.6433C430.532 87.05 428.95 84.6928 426.947 82.7094C424.944 80.726 422.559 79.1562 419.934 78.0918C417.308 77.0274 414.493 76.4898 411.654 76.5104H318.746L372.05 164.327L376.969 164.941L380.083 168.962V172.707L383.445 173.382L386.559 177.557V181.178L390.046 181.792L393.564 185.568V193.917C397.753 197.645 402.473 200.747 407.575 203.125C412.277 204.905 412.806 212.333 415.639 216.293C419.189 222.063 424.046 224.366 423.018 227.588C420.652 236.214 411.685 250.763 403.341 251.438H370.337V265.373H411.685C414.531 265.361 417.346 264.795 419.969 263.708C422.592 262.62 424.971 261.033 426.97 259.037C428.969 257.04 430.549 254.674 431.618 252.074C432.687 249.475 433.224 246.692 433.2 243.887V97.8124" fill="#BF0D3E"/>
<path d="M205.88 251.653H189.908C189.908 212.303 203.389 190.54 219.549 186.212C221.759 185.813 220.701 175.07 217.898 171.786H208.558C207.063 171.786 207.935 169.023 207.935 169.023L215.501 153.093L214.474 148.734H186.514L209.492 132.896C210.551 91.121 254.016 87.8674 280.2 105.271C295.768 115.431 296.951 135.567 295.768 149.471C295.581 150.361 291.72 149.778 291.72 149.778C291.72 149.778 289.074 165.125 295.986 165.125H326.53C338.984 164.634 351.002 172.952 351.002 172.952L353.929 162.424L287.019 76.5104H79.2526C73.5051 76.4773 67.977 78.6837 63.8717 82.6493C61.87 84.6465 60.2892 87.0147 59.2205 89.6171C58.1517 92.2196 57.6161 95.0049 57.6446 97.8124V244.071C57.6088 246.871 58.1413 249.649 59.2107 252.242C60.2801 254.836 61.8649 257.192 63.8717 259.173C67.9517 263.195 73.4829 265.458 79.2526 265.465H214.131C210.831 259.879 207.063 253.525 205.911 251.653" fill="#041E42"/>
<path d="M87.5969 220.621C87.597 217.738 88.4658 214.92 90.093 212.525C91.7202 210.13 94.0325 208.265 96.7365 207.168C99.4404 206.07 102.414 205.789 105.28 206.361C108.146 206.932 110.776 208.33 112.835 210.377C114.894 212.424 116.289 215.028 116.845 217.858C117.4 220.689 117.09 223.618 115.954 226.274C114.818 228.93 112.907 231.194 110.463 232.778C108.02 234.362 105.155 235.194 102.231 235.17C100.297 235.174 98.3821 234.8 96.5966 234.069C94.8111 233.337 93.1907 232.264 91.8294 230.91C90.468 229.557 89.3929 227.95 88.6663 226.184C87.9398 224.418 87.5763 222.527 87.5969 220.621ZM441.98 278.879C441.98 277.221 440.984 277.007 439.551 277.007H436.438V283.145H437.745V280.721H438.804L440.236 283.145H441.7L440.205 280.721C440.44 280.727 440.674 280.683 440.889 280.592C441.105 280.501 441.299 280.364 441.456 280.192C441.613 280.019 441.73 279.815 441.799 279.594C441.868 279.373 441.887 279.139 441.855 278.91M439.458 279.616H437.714V278.112H439.147C439.769 278.112 440.548 278.112 440.548 278.787C440.548 279.462 440.174 279.616 439.458 279.616Z" fill="white"/>
<path d="M439.022 274.183C437.841 274.183 436.686 274.528 435.704 275.174C434.722 275.82 433.955 276.739 433.502 277.814C433.049 278.889 432.929 280.072 433.157 281.214C433.385 282.357 433.951 283.407 434.784 284.232C435.617 285.058 436.679 285.621 437.837 285.852C438.994 286.083 440.195 285.971 441.288 285.529C442.381 285.088 443.317 284.338 443.977 283.372C444.638 282.407 444.994 281.271 445 280.107C445.013 279.328 444.867 278.555 444.571 277.832C444.275 277.11 443.836 276.453 443.279 275.901C442.722 275.349 442.058 274.912 441.327 274.617C440.596 274.322 439.812 274.174 439.022 274.183ZM439.022 284.711C437.783 284.711 436.595 284.226 435.72 283.362C434.844 282.499 434.352 281.328 434.352 280.107C434.352 278.886 434.844 277.714 435.72 276.851C436.595 275.988 437.783 275.503 439.022 275.503C440.261 275.503 441.449 275.988 442.324 276.851C443.2 277.714 443.692 278.886 443.692 280.107C443.692 281.328 443.2 282.499 442.324 283.362C441.449 284.226 440.261 284.711 439.022 284.711Z" fill="white"/>
</g>
<mask id="path-6-outside-1_10_14" maskUnits="userSpaceOnUse" x="20" y="267" width="456" height="59" fill="black">
<rect fill="white" x="20" y="267" width="456" height="59"/>
<path d="M45.108 319.448C39.86 319.448 35.5507 318.211 32.18 315.736C28.8093 313.219 26.996 309.635 26.74 304.984H40.116C40.244 306.563 40.7133 307.715 41.524 308.44C42.3347 309.165 43.38 309.528 44.66 309.528C45.812 309.528 46.7507 309.251 47.476 308.696C48.244 308.099 48.628 307.288 48.628 306.264C48.628 304.941 48.0093 303.917 46.772 303.192C45.5347 302.467 43.5293 301.656 40.756 300.76C37.812 299.779 35.4227 298.84 33.588 297.944C31.796 297.005 30.2173 295.661 28.852 293.912C27.5293 292.12 26.868 289.795 26.868 286.936C26.868 284.035 27.5933 281.56 29.044 279.512C30.4947 277.421 32.5 275.843 35.06 274.776C37.62 273.709 40.5213 273.176 43.764 273.176C49.012 273.176 53.1933 274.413 56.308 276.888C59.4653 279.32 61.1507 282.755 61.364 287.192H47.732C47.6893 285.827 47.2627 284.803 46.452 284.12C45.684 283.437 44.6813 283.096 43.444 283.096C42.5053 283.096 41.7373 283.373 41.14 283.928C40.5427 284.483 40.244 285.272 40.244 286.296C40.244 287.149 40.564 287.896 41.204 288.536C41.8867 289.133 42.7187 289.667 43.7 290.136C44.6813 290.563 46.132 291.117 48.052 291.8C50.9107 292.781 53.2573 293.763 55.092 294.744C56.9693 295.683 58.5693 297.027 59.892 298.776C61.2573 300.483 61.94 302.659 61.94 305.304C61.94 307.992 61.2573 310.403 59.892 312.536C58.5693 314.669 56.628 316.355 54.068 317.592C51.5507 318.829 48.564 319.448 45.108 319.448ZM66.2355 296.344C66.2355 291.907 67.1528 287.96 68.9875 284.504C70.8648 281.005 73.5102 278.296 76.9235 276.376C80.3368 274.413 84.2622 273.432 88.6995 273.432C94.3315 273.432 99.0675 274.947 102.908 277.976C106.748 280.963 109.222 285.037 110.332 290.2H96.8275C96.0168 288.493 94.8862 287.192 93.4355 286.296C92.0275 285.4 90.3848 284.952 88.5075 284.952C85.6062 284.952 83.2808 285.997 81.5315 288.088C79.8248 290.136 78.9715 292.888 78.9715 296.344C78.9715 299.843 79.8248 302.637 81.5315 304.728C83.2808 306.776 85.6062 307.8 88.5075 307.8C90.3848 307.8 92.0275 307.352 93.4355 306.456C94.8862 305.56 96.0168 304.259 96.8275 302.552H110.332C109.222 307.715 106.748 311.811 102.908 314.84C99.0675 317.827 94.3315 319.32 88.6995 319.32C84.2622 319.32 80.3368 318.36 76.9235 316.44C73.5102 314.477 70.8648 311.768 68.9875 308.312C67.1528 304.813 66.2355 300.824 66.2355 296.344ZM137.904 319.448C133.68 319.448 129.797 318.467 126.256 316.504C122.714 314.499 119.898 311.747 117.808 308.248C115.76 304.707 114.736 300.717 114.736 296.28C114.736 291.843 115.76 287.875 117.808 284.376C119.898 280.835 122.714 278.083 126.256 276.12C129.797 274.157 133.68 273.176 137.904 273.176C142.17 273.176 146.053 274.157 149.552 276.12C153.093 278.083 155.888 280.835 157.936 284.376C159.984 287.875 161.008 291.843 161.008 296.28C161.008 300.717 159.984 304.707 157.936 308.248C155.888 311.747 153.093 314.499 149.552 316.504C146.01 318.467 142.128 319.448 137.904 319.448ZM137.904 307.8C141.104 307.8 143.621 306.755 145.456 304.664C147.333 302.573 148.272 299.779 148.272 296.28C148.272 292.696 147.333 289.88 145.456 287.832C143.621 285.741 141.104 284.696 137.904 284.696C134.661 284.696 132.122 285.741 130.288 287.832C128.453 289.88 127.536 292.696 127.536 296.28C127.536 299.821 128.453 302.637 130.288 304.728C132.122 306.776 134.661 307.8 137.904 307.8ZM189.495 319L180.535 302.36H179.191V319H166.647V273.88H186.423C190.049 273.88 193.121 274.52 195.639 275.8C198.156 277.037 200.055 278.765 201.335 280.984C202.615 283.16 203.255 285.613 203.255 288.344C203.255 291.416 202.401 294.125 200.694 296.472C199.031 298.776 196.577 300.419 193.335 301.4L203.511 319H189.495ZM179.191 293.784H185.399C187.105 293.784 188.385 293.379 189.239 292.568C190.092 291.757 190.519 290.584 190.519 289.048C190.519 287.597 190.071 286.467 189.175 285.656C188.321 284.803 187.063 284.376 185.399 284.376H179.191V293.784ZM221.503 283.928V291.288H235.903V300.824H221.503V308.952H237.823V319H208.959V273.88H237.823V283.928H221.503ZM272.822 295.832C275.467 296.429 277.558 297.752 279.094 299.8C280.672 301.805 281.462 304.109 281.462 306.712C281.462 310.552 280.139 313.56 277.494 315.736C274.848 317.912 271.136 319 266.358 319H244.022V273.88H265.654C270.262 273.88 273.867 274.904 276.47 276.952C279.115 279 280.438 281.88 280.438 285.592C280.438 288.237 279.734 290.456 278.326 292.248C276.96 293.997 275.126 295.192 272.822 295.832ZM256.566 291.8H262.902C266.059 291.8 267.638 290.499 267.638 287.896C267.638 285.208 266.059 283.864 262.902 283.864H256.566V291.8ZM263.862 308.888C267.019 308.888 268.598 307.565 268.598 304.92C268.598 303.555 268.171 302.509 267.318 301.784C266.507 301.059 265.334 300.696 263.798 300.696H256.566V308.888H263.862ZM308.591 319.448C304.367 319.448 300.484 318.467 296.943 316.504C293.402 314.499 290.586 311.747 288.495 308.248C286.447 304.707 285.423 300.717 285.423 296.28C285.423 291.843 286.447 287.875 288.495 284.376C290.586 280.835 293.402 278.083 296.943 276.12C300.484 274.157 304.367 273.176 308.591 273.176C312.858 273.176 316.74 274.157 320.239 276.12C323.78 278.083 326.575 280.835 328.623 284.376C330.671 287.875 331.695 291.843 331.695 296.28C331.695 300.717 330.671 304.707 328.623 308.248C326.575 311.747 323.78 314.499 320.239 316.504C316.698 318.467 312.815 319.448 308.591 319.448ZM308.591 307.8C311.791 307.8 314.308 306.755 316.143 304.664C318.02 302.573 318.959 299.779 318.959 296.28C318.959 292.696 318.02 289.88 316.143 287.832C314.308 285.741 311.791 284.696 308.591 284.696C305.348 284.696 302.81 285.741 300.975 287.832C299.14 289.88 298.223 292.696 298.223 296.28C298.223 299.821 299.14 302.637 300.975 304.728C302.81 306.776 305.348 307.8 308.591 307.8ZM365.878 311.64H349.878L347.446 319H334.262L350.71 273.88H365.174L381.558 319H368.31L365.878 311.64ZM362.742 302.04L357.878 287.448L353.078 302.04H362.742ZM408.495 319L399.535 302.36H398.191V319H385.647V273.88H405.423C409.049 273.88 412.121 274.52 414.639 275.8C417.156 277.037 419.055 278.765 420.335 280.984C421.615 283.16 422.255 285.613 422.255 288.344C422.255 291.416 421.401 294.125 419.694 296.472C418.031 298.776 415.577 300.419 412.335 301.4L422.511 319H408.495ZM398.191 293.784H404.399C406.105 293.784 407.385 293.379 408.239 292.568C409.092 291.757 409.519 290.584 409.519 289.048C409.519 287.597 409.071 286.467 408.175 285.656C407.321 284.803 406.063 284.376 404.399 284.376H398.191V293.784ZM445.815 273.88C450.551 273.88 454.69 274.84 458.231 276.76C461.815 278.637 464.567 281.283 466.487 284.696C468.407 288.109 469.367 292.013 469.367 296.408C469.367 300.76 468.386 304.643 466.423 308.056C464.503 311.469 461.751 314.157 458.167 316.12C454.626 318.04 450.508 319 445.815 319H427.959V273.88H445.815ZM444.855 307.928C448.524 307.928 451.404 306.925 453.495 304.92C455.586 302.915 456.631 300.077 456.631 296.408C456.631 292.696 455.586 289.837 453.495 287.832C451.404 285.784 448.524 284.76 444.855 284.76H440.503V307.928H444.855Z"/>
</mask>
<path d="M45.108 319.448C39.86 319.448 35.5507 318.211 32.18 315.736C28.8093 313.219 26.996 309.635 26.74 304.984H40.116C40.244 306.563 40.7133 307.715 41.524 308.44C42.3347 309.165 43.38 309.528 44.66 309.528C45.812 309.528 46.7507 309.251 47.476 308.696C48.244 308.099 48.628 307.288 48.628 306.264C48.628 304.941 48.0093 303.917 46.772 303.192C45.5347 302.467 43.5293 301.656 40.756 300.76C37.812 299.779 35.4227 298.84 33.588 297.944C31.796 297.005 30.2173 295.661 28.852 293.912C27.5293 292.12 26.868 289.795 26.868 286.936C26.868 284.035 27.5933 281.56 29.044 279.512C30.4947 277.421 32.5 275.843 35.06 274.776C37.62 273.709 40.5213 273.176 43.764 273.176C49.012 273.176 53.1933 274.413 56.308 276.888C59.4653 279.32 61.1507 282.755 61.364 287.192H47.732C47.6893 285.827 47.2627 284.803 46.452 284.12C45.684 283.437 44.6813 283.096 43.444 283.096C42.5053 283.096 41.7373 283.373 41.14 283.928C40.5427 284.483 40.244 285.272 40.244 286.296C40.244 287.149 40.564 287.896 41.204 288.536C41.8867 289.133 42.7187 289.667 43.7 290.136C44.6813 290.563 46.132 291.117 48.052 291.8C50.9107 292.781 53.2573 293.763 55.092 294.744C56.9693 295.683 58.5693 297.027 59.892 298.776C61.2573 300.483 61.94 302.659 61.94 305.304C61.94 307.992 61.2573 310.403 59.892 312.536C58.5693 314.669 56.628 316.355 54.068 317.592C51.5507 318.829 48.564 319.448 45.108 319.448ZM66.2355 296.344C66.2355 291.907 67.1528 287.96 68.9875 284.504C70.8648 281.005 73.5102 278.296 76.9235 276.376C80.3368 274.413 84.2622 273.432 88.6995 273.432C94.3315 273.432 99.0675 274.947 102.908 277.976C106.748 280.963 109.222 285.037 110.332 290.2H96.8275C96.0168 288.493 94.8862 287.192 93.4355 286.296C92.0275 285.4 90.3848 284.952 88.5075 284.952C85.6062 284.952 83.2808 285.997 81.5315 288.088C79.8248 290.136 78.9715 292.888 78.9715 296.344C78.9715 299.843 79.8248 302.637 81.5315 304.728C83.2808 306.776 85.6062 307.8 88.5075 307.8C90.3848 307.8 92.0275 307.352 93.4355 306.456C94.8862 305.56 96.0168 304.259 96.8275 302.552H110.332C109.222 307.715 106.748 311.811 102.908 314.84C99.0675 317.827 94.3315 319.32 88.6995 319.32C84.2622 319.32 80.3368 318.36 76.9235 316.44C73.5102 314.477 70.8648 311.768 68.9875 308.312C67.1528 304.813 66.2355 300.824 66.2355 296.344ZM137.904 319.448C133.68 319.448 129.797 318.467 126.256 316.504C122.714 314.499 119.898 311.747 117.808 308.248C115.76 304.707 114.736 300.717 114.736 296.28C114.736 291.843 115.76 287.875 117.808 284.376C119.898 280.835 122.714 278.083 126.256 276.12C129.797 274.157 133.68 273.176 137.904 273.176C142.17 273.176 146.053 274.157 149.552 276.12C153.093 278.083 155.888 280.835 157.936 284.376C159.984 287.875 161.008 291.843 161.008 296.28C161.008 300.717 159.984 304.707 157.936 308.248C155.888 311.747 153.093 314.499 149.552 316.504C146.01 318.467 142.128 319.448 137.904 319.448ZM137.904 307.8C141.104 307.8 143.621 306.755 145.456 304.664C147.333 302.573 148.272 299.779 148.272 296.28C148.272 292.696 147.333 289.88 145.456 287.832C143.621 285.741 141.104 284.696 137.904 284.696C134.661 284.696 132.122 285.741 130.288 287.832C128.453 289.88 127.536 292.696 127.536 296.28C127.536 299.821 128.453 302.637 130.288 304.728C132.122 306.776 134.661 307.8 137.904 307.8ZM189.495 319L180.535 302.36H179.191V319H166.647V273.88H186.423C190.049 273.88 193.121 274.52 195.639 275.8C198.156 277.037 200.055 278.765 201.335 280.984C202.615 283.16 203.255 285.613 203.255 288.344C203.255 291.416 202.401 294.125 200.694 296.472C199.031 298.776 196.577 300.419 193.335 301.4L203.511 319H189.495ZM179.191 293.784H185.399C187.105 293.784 188.385 293.379 189.239 292.568C190.092 291.757 190.519 290.584 190.519 289.048C190.519 287.597 190.071 286.467 189.175 285.656C188.321 284.803 187.063 284.376 185.399 284.376H179.191V293.784ZM221.503 283.928V291.288H235.903V300.824H221.503V308.952H237.823V319H208.959V273.88H237.823V283.928H221.503ZM272.822 295.832C275.467 296.429 277.558 297.752 279.094 299.8C280.672 301.805 281.462 304.109 281.462 306.712C281.462 310.552 280.139 313.56 277.494 315.736C274.848 317.912 271.136 319 266.358 319H244.022V273.88H265.654C270.262 273.88 273.867 274.904 276.47 276.952C279.115 279 280.438 281.88 280.438 285.592C280.438 288.237 279.734 290.456 278.326 292.248C276.96 293.997 275.126 295.192 272.822 295.832ZM256.566 291.8H262.902C266.059 291.8 267.638 290.499 267.638 287.896C267.638 285.208 266.059 283.864 262.902 283.864H256.566V291.8ZM263.862 308.888C267.019 308.888 268.598 307.565 268.598 304.92C268.598 303.555 268.171 302.509 267.318 301.784C266.507 301.059 265.334 300.696 263.798 300.696H256.566V308.888H263.862ZM308.591 319.448C304.367 319.448 300.484 318.467 296.943 316.504C293.402 314.499 290.586 311.747 288.495 308.248C286.447 304.707 285.423 300.717 285.423 296.28C285.423 291.843 286.447 287.875 288.495 284.376C290.586 280.835 293.402 278.083 296.943 276.12C300.484 274.157 304.367 273.176 308.591 273.176C312.858 273.176 316.74 274.157 320.239 276.12C323.78 278.083 326.575 280.835 328.623 284.376C330.671 287.875 331.695 291.843 331.695 296.28C331.695 300.717 330.671 304.707 328.623 308.248C326.575 311.747 323.78 314.499 320.239 316.504C316.698 318.467 312.815 319.448 308.591 319.448ZM308.591 307.8C311.791 307.8 314.308 306.755 316.143 304.664C318.02 302.573 318.959 299.779 318.959 296.28C318.959 292.696 318.02 289.88 316.143 287.832C314.308 285.741 311.791 284.696 308.591 284.696C305.348 284.696 302.81 285.741 300.975 287.832C299.14 289.88 298.223 292.696 298.223 296.28C298.223 299.821 299.14 302.637 300.975 304.728C302.81 306.776 305.348 307.8 308.591 307.8ZM365.878 311.64H349.878L347.446 319H334.262L350.71 273.88H365.174L381.558 319H368.31L365.878 311.64ZM362.742 302.04L357.878 287.448L353.078 302.04H362.742ZM408.495 319L399.535 302.36H398.191V319H385.647V273.88H405.423C409.049 273.88 412.121 274.52 414.639 275.8C417.156 277.037 419.055 278.765 420.335 280.984C421.615 283.16 422.255 285.613 422.255 288.344C422.255 291.416 421.401 294.125 419.694 296.472C418.031 298.776 415.577 300.419 412.335 301.4L422.511 319H408.495ZM398.191 293.784H404.399C406.105 293.784 407.385 293.379 408.239 292.568C409.092 291.757 409.519 290.584 409.519 289.048C409.519 287.597 409.071 286.467 408.175 285.656C407.321 284.803 406.063 284.376 404.399 284.376H398.191V293.784ZM445.815 273.88C450.551 273.88 454.69 274.84 458.231 276.76C461.815 278.637 464.567 281.283 466.487 284.696C468.407 288.109 469.367 292.013 469.367 296.408C469.367 300.76 468.386 304.643 466.423 308.056C464.503 311.469 461.751 314.157 458.167 316.12C454.626 318.04 450.508 319 445.815 319H427.959V273.88H445.815ZM444.855 307.928C448.524 307.928 451.404 306.925 453.495 304.92C455.586 302.915 456.631 300.077 456.631 296.408C456.631 292.696 455.586 289.837 453.495 287.832C451.404 285.784 448.524 284.76 444.855 284.76H440.503V307.928H444.855Z" fill="#BF0D3E"/>
<path d="M32.18 315.736L28.5897 320.543L28.6094 320.558L28.6292 320.572L32.18 315.736ZM26.74 304.984V298.984H20.4006L20.7491 305.314L26.74 304.984ZM40.116 304.984L46.0964 304.499L45.6492 298.984H40.116V304.984ZM41.524 308.44L37.5232 312.911L37.5232 312.911L41.524 308.44ZM47.476 308.696L51.1207 313.462L51.1402 313.447L51.1596 313.432L47.476 308.696ZM46.772 303.192L49.8063 298.016L49.8063 298.016L46.772 303.192ZM40.756 300.76L38.8586 306.452L38.885 306.461L38.9114 306.469L40.756 300.76ZM33.588 297.944L30.804 303.259L30.8789 303.298L30.955 303.335L33.588 297.944ZM28.852 293.912L24.0246 297.475L24.0725 297.54L24.1221 297.604L28.852 293.912ZM29.044 279.512L33.9401 282.98L33.957 282.956L33.9735 282.932L29.044 279.512ZM35.06 274.776L32.7523 269.238L32.7523 269.238L35.06 274.776ZM56.308 276.888L52.5755 281.586L52.6109 281.614L52.6466 281.641L56.308 276.888ZM61.364 287.192V293.192H67.6594L67.3571 286.904L61.364 287.192ZM47.732 287.192L41.7349 287.379L41.9166 293.192H47.732V287.192ZM46.452 284.12L42.4658 288.604L42.5258 288.658L42.5872 288.709L46.452 284.12ZM41.14 283.928L45.2227 288.325L45.2227 288.325L41.14 283.928ZM41.204 288.536L36.9614 292.779L37.1026 292.92L37.253 293.051L41.204 288.536ZM43.7 290.136L41.1113 295.549L41.2087 295.595L41.3076 295.638L43.7 290.136ZM48.052 291.8L46.0419 297.453L46.0729 297.464L46.1039 297.475L48.052 291.8ZM55.092 294.744L52.2621 300.035L52.3349 300.074L52.4087 300.111L55.092 294.744ZM59.892 298.776L55.106 302.395L55.1555 302.46L55.2068 302.524L59.892 298.776ZM59.892 312.536L54.8384 309.302L54.8152 309.338L54.7926 309.374L59.892 312.536ZM54.068 317.592L51.457 312.19L51.4391 312.199L51.4213 312.207L54.068 317.592ZM45.108 319.448V313.448C40.8079 313.448 37.8348 312.444 35.7308 310.9L32.18 315.736L28.6292 320.572C33.2665 323.977 38.9121 325.448 45.108 325.448V319.448ZM32.18 315.736L35.7703 310.929C33.9872 309.597 32.9011 307.745 32.7309 304.654L26.74 304.984L20.7491 305.314C21.0909 311.524 23.6315 316.84 28.5897 320.543L32.18 315.736ZM26.74 304.984V310.984H40.116V304.984V298.984H26.74V304.984ZM40.116 304.984L34.1356 305.469C34.3317 307.887 35.1352 310.775 37.5232 312.911L41.524 308.44L45.5248 303.969C45.8905 304.296 46.0607 304.621 46.1206 304.768C46.1704 304.891 46.1237 304.836 46.0964 304.499L40.116 304.984ZM41.524 308.44L37.5232 312.911C39.6239 314.791 42.18 315.528 44.66 315.528V309.528V303.528C44.5864 303.528 44.6823 303.518 44.8826 303.587C45.0974 303.662 45.3277 303.792 45.5248 303.969L41.524 308.44ZM44.66 309.528V315.528C46.7798 315.528 49.1015 315.006 51.1207 313.462L47.476 308.696L43.8313 303.93C44.0918 303.731 44.3451 303.62 44.5279 303.566C44.698 303.516 44.7593 303.528 44.66 303.528V309.528ZM47.476 308.696L51.1596 313.432C53.4759 311.631 54.628 309.027 54.628 306.264H48.628H42.628C42.628 306.014 42.6788 305.576 42.9176 305.071C43.1609 304.558 43.4991 304.188 43.7924 303.96L47.476 308.696ZM48.628 306.264H54.628C54.628 302.602 52.6925 299.708 49.8063 298.016L46.772 303.192L43.7377 308.368C43.665 308.326 43.3295 308.105 43.0285 307.607C42.7138 307.086 42.628 306.577 42.628 306.264H48.628ZM46.772 303.192L49.8063 298.016C47.9788 296.944 45.4556 295.973 42.6006 295.051L40.756 300.76L38.9114 306.469C41.6031 307.339 43.0906 307.989 43.7377 308.368L46.772 303.192ZM40.756 300.76L42.6534 295.068C39.8461 294.132 37.7289 293.289 36.221 292.553L33.588 297.944L30.955 303.335C33.1164 304.391 35.7779 305.425 38.8586 306.452L40.756 300.76ZM33.588 297.944L36.372 292.629C35.4076 292.124 34.473 291.362 33.5819 290.22L28.852 293.912L24.1221 297.604C25.9616 299.961 28.1844 301.887 30.804 303.259L33.588 297.944ZM28.852 293.912L33.6794 290.349C33.3099 289.848 32.868 288.877 32.868 286.936H26.868H20.868C20.868 290.712 21.7488 294.392 24.0246 297.475L28.852 293.912ZM26.868 286.936H32.868C32.868 285.077 33.3153 283.862 33.9401 282.98L29.044 279.512L24.1479 276.044C21.8713 279.258 20.868 282.993 20.868 286.936H26.868ZM29.044 279.512L33.9735 282.932C34.7121 281.868 35.7672 280.981 37.3677 280.314L35.06 274.776L32.7523 269.238C29.2328 270.704 26.2773 272.975 24.1145 276.092L29.044 279.512ZM35.06 274.776L37.3677 280.314C39.0836 279.6 41.1812 279.176 43.764 279.176V273.176V267.176C39.8614 267.176 36.1564 267.819 32.7523 269.238L35.06 274.776ZM43.764 273.176V279.176C48.0909 279.176 50.8185 280.19 52.5755 281.586L56.308 276.888L60.0405 272.19C55.5681 268.637 49.9331 267.176 43.764 267.176V273.176ZM56.308 276.888L52.6466 281.641C54.239 282.868 55.2312 284.574 55.3709 287.48L61.364 287.192L67.3571 286.904C67.0701 280.935 64.6917 275.772 59.9694 272.135L56.308 276.888ZM61.364 287.192V281.192H47.732V287.192V293.192H61.364V287.192ZM47.732 287.192L53.7291 287.005C53.6495 284.459 52.7844 281.609 50.3168 279.531L46.452 284.12L42.5872 288.709C42.2262 288.405 41.9784 288.036 41.8415 287.708C41.7179 287.411 41.7313 287.263 41.7349 287.379L47.732 287.192ZM46.452 284.12L50.4382 279.636C48.3572 277.786 45.8357 277.096 43.444 277.096V283.096V289.096C43.5131 289.096 43.4065 289.105 43.1904 289.032C42.9585 288.953 42.698 288.811 42.4658 288.604L46.452 284.12ZM43.444 283.096V277.096C41.2368 277.096 38.9324 277.79 37.0573 279.531L41.14 283.928L45.2227 288.325C44.9294 288.597 44.575 288.813 44.2019 288.947C43.8426 289.077 43.5671 289.096 43.444 289.096V283.096ZM41.14 283.928L37.0573 279.531C34.939 281.498 34.244 284.06 34.244 286.296H40.244H46.244C46.244 286.359 46.2354 286.648 46.0797 287.059C45.9135 287.499 45.6265 287.95 45.2227 288.325L41.14 283.928ZM40.244 286.296H34.244C34.244 288.845 35.2719 291.089 36.9614 292.779L41.204 288.536L45.4466 284.293C45.6049 284.452 45.8257 284.728 45.9989 285.132C46.175 285.543 46.244 285.952 46.244 286.296H40.244ZM41.204 288.536L37.253 293.051C38.4189 294.072 39.7317 294.889 41.1113 295.549L43.7 290.136L46.2887 284.723C45.7056 284.444 45.3545 284.195 45.155 284.021L41.204 288.536ZM43.7 290.136L41.3076 295.638C42.4808 296.148 44.0858 296.758 46.0419 297.453L48.052 291.8L50.0621 286.147C48.1782 285.477 46.8819 284.977 46.0924 284.634L43.7 290.136ZM48.052 291.8L46.1039 297.475C48.7819 298.394 50.8059 299.256 52.2621 300.035L55.092 294.744L57.9219 289.453C55.7087 288.27 53.0395 287.168 50.0001 286.125L48.052 291.8ZM55.092 294.744L52.4087 300.111C53.4227 300.618 54.3147 301.348 55.106 302.395L59.892 298.776L64.678 295.157C62.824 292.705 60.516 290.748 57.7753 289.377L55.092 294.744ZM59.892 298.776L55.2068 302.524C55.5527 302.957 55.94 303.725 55.94 305.304H61.94H67.94C67.94 301.593 66.9619 298.009 64.5772 295.028L59.892 298.776ZM61.94 305.304H55.94C55.94 306.919 55.5473 308.194 54.8384 309.302L59.892 312.536L64.9456 315.77C66.9674 312.611 67.94 309.065 67.94 305.304H61.94ZM59.892 312.536L54.7926 309.374C54.1469 310.416 53.1316 311.381 51.457 312.19L54.068 317.592L56.679 322.994C60.1244 321.329 62.9918 318.923 64.9914 315.698L59.892 312.536ZM54.068 317.592L51.4213 312.207C49.8964 312.957 47.8551 313.448 45.108 313.448V319.448V325.448C49.2729 325.448 53.2049 324.702 56.7147 322.977L54.068 317.592ZM68.9875 284.504L63.7005 281.667L63.6942 281.679L63.688 281.691L68.9875 284.504ZM76.9235 276.376L79.8651 281.605L79.8898 281.592L79.9143 281.577L76.9235 276.376ZM102.908 277.976L99.1913 282.687L99.2076 282.699L99.2239 282.712L102.908 277.976ZM110.332 290.2V296.2H117.758L116.198 288.94L110.332 290.2ZM96.8275 290.2L91.4078 292.774L93.035 296.2H96.8275V290.2ZM93.4355 286.296L90.2143 291.358L90.2483 291.38L90.2825 291.401L93.4355 286.296ZM81.5315 288.088L76.9299 284.238L76.9222 284.247L81.5315 288.088ZM81.5315 304.728L76.8835 308.522L76.9258 308.574L76.9693 308.625L81.5315 304.728ZM93.4355 306.456L90.2825 301.351L90.2483 301.372L90.2142 301.394L93.4355 306.456ZM96.8275 302.552V296.552H93.035L91.4078 299.978L96.8275 302.552ZM110.332 302.552L116.198 303.812L117.758 296.552H110.332V302.552ZM102.908 314.84L106.591 319.576L106.607 319.563L106.624 319.551L102.908 314.84ZM76.9235 316.44L73.9327 321.641L73.9572 321.656L73.9819 321.669L76.9235 316.44ZM68.9875 308.312L63.6738 311.098L63.6942 311.137L63.7152 311.176L68.9875 308.312ZM66.2355 296.344H72.2355C72.2355 292.755 72.9709 289.797 74.287 287.317L68.9875 284.504L63.688 281.691C61.3348 286.123 60.2355 291.059 60.2355 296.344H66.2355ZM68.9875 284.504L74.2745 287.341C75.6209 284.832 77.4593 282.959 79.8651 281.605L76.9235 276.376L73.9819 271.147C69.561 273.633 66.1087 277.179 63.7005 281.667L68.9875 284.504ZM76.9235 276.376L79.9143 281.577C82.3067 280.202 85.1759 279.432 88.6995 279.432V273.432V267.432C83.3484 267.432 78.3669 268.625 73.9327 271.175L76.9235 276.376ZM88.6995 273.432V279.432C93.1972 279.432 96.5666 280.616 99.1913 282.687L102.908 277.976L106.624 273.265C101.568 269.277 95.4658 267.432 88.6995 267.432V273.432ZM102.908 277.976L99.2239 282.712C101.852 284.756 103.625 287.55 104.465 291.46L110.332 290.2L116.198 288.94C114.819 282.524 111.643 277.169 106.591 273.24L102.908 277.976ZM110.332 290.2V284.2H96.8275V290.2V296.2H110.332V290.2ZM96.8275 290.2L102.247 287.626C100.996 284.992 99.1274 282.759 96.5885 281.191L93.4355 286.296L90.2825 291.401C90.645 291.625 91.0376 291.995 91.4078 292.774L96.8275 290.2ZM93.4355 286.296L96.6568 281.234C94.1693 279.651 91.3792 278.952 88.5075 278.952V284.952V290.952C89.3905 290.952 89.8857 291.149 90.2143 291.358L93.4355 286.296ZM88.5075 284.952V278.952C83.9602 278.952 79.9004 280.688 76.9299 284.238L81.5315 288.088L86.1331 291.938C86.6613 291.307 87.2521 290.952 88.5075 290.952V284.952ZM81.5315 288.088L76.9222 284.247C74.0791 287.659 72.9715 291.907 72.9715 296.344H78.9715H84.9715C84.9715 293.869 85.5706 292.613 86.1408 291.929L81.5315 288.088ZM78.9715 296.344H72.9715C72.9715 300.81 74.0716 305.078 76.8835 308.522L81.5315 304.728L86.1795 300.934C85.578 300.197 84.9715 298.875 84.9715 296.344H78.9715ZM81.5315 304.728L76.9693 308.625C79.9547 312.12 84.0047 313.8 88.5075 313.8V307.8V301.8C87.2076 301.8 86.607 301.432 86.0937 300.831L81.5315 304.728ZM88.5075 307.8V313.8C91.3792 313.8 94.1693 313.101 96.6568 311.518L93.4355 306.456L90.2142 301.394C89.8857 301.603 89.3905 301.8 88.5075 301.8V307.8ZM93.4355 306.456L96.5885 311.561C99.1274 309.993 100.996 307.76 102.247 305.126L96.8275 302.552L91.4078 299.978C91.0376 300.757 90.645 301.127 90.2825 301.351L93.4355 306.456ZM96.8275 302.552V308.552H110.332V302.552V296.552H96.8275V302.552ZM110.332 302.552L104.465 301.292C103.624 305.206 101.845 308.036 99.1913 310.129L102.908 314.84L106.624 319.551C111.65 315.585 114.82 310.224 116.198 303.812L110.332 302.552ZM102.908 314.84L99.2239 310.104C96.5983 312.146 93.217 313.32 88.6995 313.32V319.32V325.32C95.446 325.32 101.537 323.507 106.591 319.576L102.908 314.84ZM88.6995 319.32V313.32C85.1533 313.32 82.2662 312.561 79.8651 311.211L76.9235 316.44L73.9819 321.669C78.4074 324.159 83.3711 325.32 88.6995 325.32V319.32ZM76.9235 316.44L79.9143 311.239C77.4619 309.828 75.6068 307.928 74.2598 305.448L68.9875 308.312L63.7152 311.176C66.1228 315.608 69.5584 319.126 73.9327 321.641L76.9235 316.44ZM68.9875 308.312L74.3012 305.526C72.9747 302.996 72.2355 299.985 72.2355 296.344H66.2355H60.2355C60.2355 301.663 61.331 306.631 63.6738 311.098L68.9875 308.312ZM126.256 316.504L123.299 321.725L123.323 321.739L123.347 321.752L126.256 316.504ZM117.808 308.248L112.614 311.252L112.635 311.289L112.657 311.326L117.808 308.248ZM117.808 284.376L112.641 281.326L112.635 281.335L112.629 281.345L117.808 284.376ZM149.552 276.12L146.616 281.353L146.629 281.36L146.643 281.368L149.552 276.12ZM157.936 284.376L152.742 287.38L152.749 287.393L152.757 287.407L157.936 284.376ZM157.936 308.248L163.114 311.279L163.122 311.265L163.129 311.252L157.936 308.248ZM149.552 316.504L152.46 321.752L152.484 321.739L152.508 321.725L149.552 316.504ZM145.456 304.664L140.991 300.655L140.968 300.681L140.946 300.706L145.456 304.664ZM145.456 287.832L140.946 291.79L140.989 291.838L141.033 291.886L145.456 287.832ZM130.288 287.832L134.757 291.835L134.777 291.813L134.797 291.79L130.288 287.832ZM130.288 304.728L125.778 308.686L125.798 308.709L125.818 308.731L130.288 304.728ZM137.904 319.448V313.448C134.651 313.448 131.776 312.704 129.164 311.256L126.256 316.504L123.347 321.752C127.818 324.23 132.708 325.448 137.904 325.448V319.448ZM126.256 316.504L129.212 311.283C126.577 309.791 124.516 307.778 122.958 305.17L117.808 308.248L112.657 311.326C115.28 315.715 118.852 319.207 123.299 321.725L126.256 316.504ZM117.808 308.248L123.001 305.244C121.526 302.692 120.736 299.755 120.736 296.28H114.736H108.736C108.736 301.68 109.993 306.721 112.614 311.252L117.808 308.248ZM114.736 296.28H120.736C120.736 292.804 121.526 289.901 122.986 287.407L117.808 284.376L112.629 281.345C109.993 285.849 108.736 290.881 108.736 296.28H114.736ZM117.808 284.376L122.974 287.426C124.53 284.79 126.573 282.804 129.164 281.368L126.256 276.12L123.347 270.872C118.855 273.361 115.266 276.879 112.641 281.326L117.808 284.376ZM126.256 276.12L129.164 281.368C131.776 279.92 134.651 279.176 137.904 279.176V273.176V267.176C132.708 267.176 127.818 268.394 123.347 270.872L126.256 276.12ZM137.904 273.176V279.176C141.21 279.176 144.071 279.925 146.616 281.353L149.552 276.12L152.487 270.887C148.035 268.389 143.131 267.176 137.904 267.176V273.176ZM149.552 276.12L146.643 281.368C149.223 282.798 151.232 284.769 152.742 287.38L157.936 284.376L163.129 281.372C160.543 276.9 156.963 273.368 152.46 270.872L149.552 276.12ZM157.936 284.376L152.757 287.407C154.217 289.901 155.008 292.804 155.008 296.28H161.008H167.008C167.008 290.881 165.75 285.849 163.114 281.345L157.936 284.376ZM161.008 296.28H155.008C155.008 299.755 154.217 302.692 152.742 305.244L157.936 308.248L163.129 311.252C165.75 306.721 167.008 301.68 167.008 296.28H161.008ZM157.936 308.248L152.757 305.217C151.246 307.799 149.219 309.797 146.595 311.283L149.552 316.504L152.508 321.725C156.966 319.2 160.529 315.695 163.114 311.279L157.936 308.248ZM149.552 316.504L146.643 311.256C144.031 312.704 141.156 313.448 137.904 313.448V319.448V325.448C143.099 325.448 147.989 324.23 152.46 321.752L149.552 316.504ZM137.904 307.8V313.8C142.543 313.8 146.814 312.212 149.965 308.622L145.456 304.664L140.946 300.706C140.427 301.297 139.664 301.8 137.904 301.8V307.8ZM145.456 304.664L149.92 308.673C153.012 305.229 154.272 300.881 154.272 296.28H148.272H142.272C142.272 298.676 141.654 299.918 140.991 300.655L145.456 304.664ZM148.272 296.28H154.272C154.272 291.644 153.037 287.224 149.878 283.778L145.456 287.832L141.033 291.886C141.628 292.536 142.272 293.748 142.272 296.28H148.272ZM145.456 287.832L149.965 283.874C146.814 280.284 142.543 278.696 137.904 278.696V284.696V290.696C139.664 290.696 140.427 291.199 140.946 291.79L145.456 287.832ZM137.904 284.696V278.696C133.25 278.696 128.945 280.266 125.778 283.874L130.288 287.832L134.797 291.79C135.3 291.217 136.072 290.696 137.904 290.696V284.696ZM130.288 287.832L125.818 283.829C122.729 287.277 121.536 291.678 121.536 296.28H127.536H133.536C133.536 293.714 134.176 292.483 134.757 291.835L130.288 287.832ZM127.536 296.28H121.536C121.536 300.868 122.743 305.227 125.778 308.686L130.288 304.728L134.797 300.77C134.163 300.047 133.536 298.775 133.536 296.28H127.536ZM130.288 304.728L125.818 308.731C128.997 312.28 133.29 313.8 137.904 313.8V307.8V301.8C136.031 301.8 135.247 301.272 134.757 300.725L130.288 304.728ZM189.495 319L184.212 321.845L185.911 325H189.495V319ZM180.535 302.36L185.817 299.515L184.118 296.36H180.535V302.36ZM179.191 302.36V296.36H173.191V302.36H179.191ZM179.191 319V325H185.191V319H179.191ZM166.647 319H160.647V325H166.647V319ZM166.647 273.88V267.88H160.647V273.88H166.647ZM195.639 275.8L192.919 281.148L192.955 281.167L192.992 281.185L195.639 275.8ZM201.335 280.984L196.137 283.982L196.15 284.004L196.163 284.026L201.335 280.984ZM200.694 296.472L195.842 292.943L195.836 292.951L195.83 292.959L200.694 296.472ZM193.335 301.4L191.597 295.657L184.351 297.85L188.14 304.403L193.335 301.4ZM203.511 319V325H213.91L208.705 315.997L203.511 319ZM179.191 293.784H173.191V299.784H179.191V293.784ZM189.239 292.568L185.106 288.218L185.106 288.218L189.239 292.568ZM189.175 285.656L184.932 289.899L185.038 290.005L185.149 290.105L189.175 285.656ZM179.191 284.376V278.376H173.191V284.376H179.191ZM189.495 319L194.777 316.155L185.817 299.515L180.535 302.36L175.252 305.205L184.212 321.845L189.495 319ZM180.535 302.36V296.36H179.191V302.36V308.36H180.535V302.36ZM179.191 302.36H173.191V319H179.191H185.191V302.36H179.191ZM179.191 319V313H166.647V319V325H179.191V319ZM166.647 319H172.647V273.88H166.647H160.647V319H166.647ZM166.647 273.88V279.88H186.423V273.88V267.88H166.647V273.88ZM186.423 273.88V279.88C189.364 279.88 191.449 280.401 192.919 281.148L195.639 275.8L198.358 270.452C194.793 268.639 190.734 267.88 186.423 267.88V273.88ZM195.639 275.8L192.992 281.185C194.547 281.949 195.508 282.892 196.137 283.982L201.335 280.984L206.532 277.986C204.601 274.638 201.765 272.125 198.285 270.415L195.639 275.8ZM201.335 280.984L196.163 284.026C196.856 285.205 197.255 286.593 197.255 288.344H203.255H209.255C209.255 284.634 208.373 281.115 206.506 277.942L201.335 280.984ZM203.255 288.344H197.255C197.255 290.227 196.758 291.684 195.842 292.943L200.694 296.472L205.547 300.001C208.045 296.567 209.255 292.605 209.255 288.344H203.255ZM200.694 296.472L195.83 292.959C195.076 294.004 193.831 294.981 191.597 295.657L193.335 301.4L195.072 307.143C199.324 305.856 202.985 303.548 205.559 299.985L200.694 296.472ZM193.335 301.4L188.14 304.403L198.316 322.003L203.511 319L208.705 315.997L198.529 298.397L193.335 301.4ZM203.511 319V313H189.495V319V325H203.511V319ZM179.191 293.784V299.784H185.399V293.784V287.784H179.191V293.784ZM185.399 293.784V299.784C187.955 299.784 190.988 299.182 193.371 296.918L189.239 292.568L185.106 288.218C185.258 288.073 185.412 287.965 185.547 287.887C185.681 287.811 185.781 287.775 185.827 287.76C185.907 287.735 185.796 287.784 185.399 287.784V293.784ZM189.239 292.568L193.371 296.918C195.751 294.657 196.519 291.702 196.519 289.048H190.519H184.519C184.519 289.272 184.486 289.232 184.56 289.03C184.644 288.798 184.819 288.491 185.106 288.218L189.239 292.568ZM190.519 289.048H196.519C196.519 286.272 195.604 283.381 193.2 281.207L189.175 285.656L185.149 290.105C184.91 289.889 184.717 289.607 184.604 289.322C184.502 289.063 184.519 288.937 184.519 289.048H190.519ZM189.175 285.656L193.417 281.413C191.068 279.064 188.038 278.376 185.399 278.376V284.376V290.376C185.733 290.376 185.789 290.421 185.664 290.378C185.597 290.356 185.485 290.31 185.349 290.227C185.21 290.143 185.067 290.034 184.932 289.899L189.175 285.656ZM185.399 284.376V278.376H179.191V284.376V290.376H185.399V284.376ZM179.191 284.376H173.191V293.784H179.191H185.191V284.376H179.191ZM221.503 283.928V277.928H215.503V283.928H221.503ZM221.503 291.288H215.503V297.288H221.503V291.288ZM235.903 291.288H241.903V285.288H235.903V291.288ZM235.903 300.824V306.824H241.903V300.824H235.903ZM221.503 300.824V294.824H215.503V300.824H221.503ZM221.503 308.952H215.503V314.952H221.503V308.952ZM237.823 308.952H243.823V302.952H237.823V308.952ZM237.823 319V325H243.823V319H237.823ZM208.959 319H202.959V325H208.959V319ZM208.959 273.88V267.88H202.959V273.88H208.959ZM237.823 273.88H243.823V267.88H237.823V273.88ZM237.823 283.928V289.928H243.823V283.928H237.823ZM221.503 283.928H215.503V291.288H221.503H227.503V283.928H221.503ZM221.503 291.288V297.288H235.903V291.288V285.288H221.503V291.288ZM235.903 291.288H229.903V300.824H235.903H241.903V291.288H235.903ZM235.903 300.824V294.824H221.503V300.824V306.824H235.903V300.824ZM221.503 300.824H215.503V308.952H221.503H227.503V300.824H221.503ZM221.503 308.952V314.952H237.823V308.952V302.952H221.503V308.952ZM237.823 308.952H231.823V319H237.823H243.823V308.952H237.823ZM237.823 319V313H208.959V319V325H237.823V319ZM208.959 319H214.959V273.88H208.959H202.959V319H208.959ZM208.959 273.88V279.88H237.823V273.88V267.88H208.959V273.88ZM237.823 273.88H231.823V283.928H237.823H243.823V273.88H237.823ZM237.823 283.928V277.928H221.503V283.928V289.928H237.823V283.928ZM272.822 295.832L271.216 290.051L271.5 301.685L272.822 295.832ZM279.094 299.8L274.294 303.4L274.336 303.456L274.379 303.511L279.094 299.8ZM277.494 315.736L281.305 320.37L281.305 320.37L277.494 315.736ZM244.022 319H238.022V325H244.022V319ZM244.022 273.88V267.88H238.022V273.88H244.022ZM276.47 276.952L272.759 281.667L272.778 281.682L272.796 281.696L276.47 276.952ZM278.326 292.248L273.608 288.541L273.602 288.549L273.596 288.556L278.326 292.248ZM256.566 291.8H250.566V297.8H256.566V291.8ZM256.566 283.864V277.864H250.566V283.864H256.566ZM267.318 301.784L263.317 306.255L263.374 306.306L263.432 306.356L267.318 301.784ZM256.566 300.696V294.696H250.566V300.696H256.566ZM256.566 308.888H250.566V314.888H256.566V308.888ZM272.822 295.832L271.5 301.685C272.844 301.988 273.666 302.563 274.294 303.4L279.094 299.8L283.894 296.2C281.449 292.941 278.089 290.87 274.143 289.979L272.822 295.832ZM279.094 299.8L274.379 303.511C275.107 304.436 275.462 305.427 275.462 306.712H281.462H287.462C287.462 302.792 286.237 299.174 283.808 296.089L279.094 299.8ZM281.462 306.712H275.462C275.462 309.003 274.763 310.213 273.682 311.102L277.494 315.736L281.305 320.37C285.515 316.907 287.462 312.101 287.462 306.712H281.462ZM277.494 315.736L273.682 311.102C272.466 312.103 270.289 313 266.358 313V319V325C271.984 325 277.23 323.721 281.305 320.37L277.494 315.736ZM266.358 319V313H244.022V319V325H266.358V319ZM244.022 319H250.022V273.88H244.022H238.022V319H244.022ZM244.022 273.88V279.88H265.654V273.88V267.88H244.022V273.88ZM265.654 273.88V279.88C269.434 279.88 271.56 280.723 272.759 281.667L276.47 276.952L280.18 272.237C276.174 269.085 271.089 267.88 265.654 267.88V273.88ZM276.47 276.952L272.796 281.696C273.799 282.473 274.438 283.503 274.438 285.592H280.438H286.438C286.438 280.257 284.43 275.527 280.143 272.208L276.47 276.952ZM280.438 285.592H274.438C274.438 287.119 274.055 287.971 273.608 288.541L278.326 292.248L283.043 295.955C285.412 292.941 286.438 289.356 286.438 285.592H280.438ZM278.326 292.248L273.596 288.556C273.084 289.212 272.383 289.727 271.216 290.051L272.822 295.832L274.427 301.613C277.868 300.657 280.837 298.782 283.055 295.94L278.326 292.248ZM256.566 291.8V297.8H262.902V291.8V285.8H256.566V291.8ZM262.902 291.8V297.8C265.153 297.8 267.958 297.36 270.27 295.454C272.804 293.365 273.638 290.461 273.638 287.896H267.638H261.638C261.638 287.952 261.628 287.728 261.779 287.355C261.945 286.944 262.237 286.524 262.637 286.194C263.37 285.59 263.807 285.8 262.902 285.8V291.8ZM267.638 287.896H273.638C273.638 285.352 272.845 282.434 270.343 280.303C268.026 278.331 265.19 277.864 262.902 277.864V283.864V289.864C263.77 289.864 263.303 290.069 262.564 289.441C262.171 289.106 261.901 288.695 261.754 288.32C261.622 287.981 261.638 287.798 261.638 287.896H267.638ZM262.902 283.864V277.864H256.566V283.864V289.864H262.902V283.864ZM256.566 283.864H250.566V291.8H256.566H262.566V283.864H256.566ZM263.862 308.888V314.888C266.132 314.888 268.952 314.435 271.267 312.495C273.785 310.385 274.598 307.474 274.598 304.92H268.598H262.598C262.598 304.997 262.585 304.794 262.727 304.438C262.883 304.045 263.164 303.629 263.56 303.297C264.296 302.68 264.749 302.888 263.862 302.888V308.888ZM268.598 304.92H274.598C274.598 302.216 273.689 299.325 271.203 297.212L267.318 301.784L263.432 306.356C263.119 306.09 262.87 305.74 262.722 305.379C262.587 305.049 262.598 304.856 262.598 304.92H268.598ZM267.318 301.784L271.318 297.313C269.027 295.263 266.204 294.696 263.798 294.696V300.696V306.696C264.108 306.696 264.168 306.734 264.058 306.7C263.926 306.66 263.633 306.539 263.317 306.255L267.318 301.784ZM263.798 300.696V294.696H256.566V300.696V306.696H263.798V300.696ZM256.566 300.696H250.566V308.888H256.566H262.566V300.696H256.566ZM256.566 308.888V314.888H263.862V308.888V302.888H256.566V308.888ZM296.943 316.504L293.987 321.725L294.01 321.739L294.035 321.752L296.943 316.504ZM288.495 308.248L283.301 311.252L283.322 311.289L283.345 311.326L288.495 308.248ZM288.495 284.376L283.328 281.326L283.323 281.335L283.317 281.345L288.495 284.376ZM320.239 276.12L317.303 281.353L317.317 281.36L317.331 281.368L320.239 276.12ZM328.623 284.376L323.429 287.38L323.437 287.393L323.445 287.407L328.623 284.376ZM328.623 308.248L333.801 311.279L333.809 311.265L333.817 311.252L328.623 308.248ZM320.239 316.504L323.147 321.752L323.172 321.739L323.195 321.725L320.239 316.504ZM316.143 304.664L311.679 300.655L311.656 300.681L311.633 300.706L316.143 304.664ZM316.143 287.832L311.633 291.79L311.676 291.838L311.72 291.886L316.143 287.832ZM300.975 287.832L305.444 291.835L305.465 291.813L305.485 291.79L300.975 287.832ZM300.975 304.728L296.465 308.686L296.485 308.709L296.506 308.731L300.975 304.728ZM308.591 319.448V313.448C305.339 313.448 302.464 312.704 299.851 311.256L296.943 316.504L294.035 321.752C298.505 324.23 303.395 325.448 308.591 325.448V319.448ZM296.943 316.504L299.899 311.283C297.264 309.791 295.204 307.778 293.645 305.17L288.495 308.248L283.345 311.326C285.968 315.715 289.539 319.207 293.987 321.725L296.943 316.504ZM288.495 308.248L293.689 305.244C292.213 302.692 291.423 299.755 291.423 296.28H285.423H279.423C279.423 301.68 280.681 306.721 283.301 311.252L288.495 308.248ZM285.423 296.28H291.423C291.423 292.804 292.213 289.901 293.673 287.407L288.495 284.376L283.317 281.345C280.681 285.849 279.423 290.881 279.423 296.28H285.423ZM288.495 284.376L293.662 287.426C295.218 284.79 297.261 282.804 299.851 281.368L296.943 276.12L294.035 270.872C289.543 273.361 285.953 276.879 283.328 281.326L288.495 284.376ZM296.943 276.12L299.851 281.368C302.464 279.92 305.339 279.176 308.591 279.176V273.176V267.176C303.395 267.176 298.505 268.394 294.035 270.872L296.943 276.12ZM308.591 273.176V279.176C311.897 279.176 314.759 279.925 317.303 281.353L320.239 276.12L323.175 270.887C318.722 268.389 313.818 267.176 308.591 267.176V273.176ZM320.239 276.12L317.331 281.368C319.91 282.798 321.919 284.769 323.429 287.38L328.623 284.376L333.817 281.372C331.231 276.9 327.65 273.368 323.147 270.872L320.239 276.12ZM328.623 284.376L323.445 287.407C324.905 289.901 325.695 292.804 325.695 296.28H331.695H337.695C337.695 290.881 336.437 285.849 333.801 281.345L328.623 284.376ZM331.695 296.28H325.695C325.695 299.755 324.905 302.692 323.429 305.244L328.623 308.248L333.817 311.252C336.437 306.721 337.695 301.68 337.695 296.28H331.695ZM328.623 308.248L323.445 305.217C321.934 307.799 319.907 309.797 317.283 311.283L320.239 316.504L323.195 321.725C327.654 319.2 331.216 315.695 333.801 311.279L328.623 308.248ZM320.239 316.504L317.331 311.256C314.718 312.704 311.843 313.448 308.591 313.448V319.448V325.448C313.787 325.448 318.677 324.23 323.147 321.752L320.239 316.504ZM308.591 307.8V313.8C313.23 313.8 317.502 312.212 320.653 308.622L316.143 304.664L311.633 300.706C311.115 301.297 310.352 301.8 308.591 301.8V307.8ZM316.143 304.664L320.607 308.673C323.7 305.229 324.959 300.881 324.959 296.28H318.959H312.959C312.959 298.676 312.341 299.918 311.679 300.655L316.143 304.664ZM318.959 296.28H324.959C324.959 291.644 323.725 287.224 320.566 283.778L316.143 287.832L311.72 291.886C312.316 292.536 312.959 293.748 312.959 296.28H318.959ZM316.143 287.832L320.653 283.874C317.502 280.284 313.23 278.696 308.591 278.696V284.696V290.696C310.352 290.696 311.115 291.199 311.633 291.79L316.143 287.832ZM308.591 284.696V278.696C303.937 278.696 299.632 280.266 296.465 283.874L300.975 287.832L305.485 291.79C305.987 291.217 306.76 290.696 308.591 290.696V284.696ZM300.975 287.832L296.506 283.829C293.417 287.277 292.223 291.678 292.223 296.28H298.223H304.223C304.223 293.714 304.864 292.483 305.444 291.835L300.975 287.832ZM298.223 296.28H292.223C292.223 300.868 293.43 305.227 296.465 308.686L300.975 304.728L305.485 300.77C304.85 300.047 304.223 298.775 304.223 296.28H298.223ZM300.975 304.728L296.506 308.731C299.685 312.28 303.978 313.8 308.591 313.8V307.8V301.8C306.719 301.8 305.935 301.272 305.444 300.725L300.975 304.728ZM365.878 311.64L371.575 309.758L370.214 305.64H365.878V311.64ZM349.878 311.64V305.64H345.542L344.181 309.758L349.878 311.64ZM347.446 319V325H351.782L353.143 320.882L347.446 319ZM334.262 319L328.625 316.945L325.689 325H334.262V319ZM350.71 273.88V267.88H346.511L345.073 271.825L350.71 273.88ZM365.174 273.88L370.814 271.832L369.379 267.88H365.174V273.88ZM381.558 319V325H390.12L387.198 316.952L381.558 319ZM368.31 319L362.613 320.882L363.974 325H368.31V319ZM362.742 302.04V308.04H371.067L368.434 300.143L362.742 302.04ZM357.878 287.448L363.57 285.551L357.84 268.361L352.178 285.573L357.878 287.448ZM353.078 302.04L347.378 300.165L344.788 308.04H353.078V302.04ZM365.878 311.64V305.64H349.878V311.64V317.64H365.878V311.64ZM349.878 311.64L344.181 309.758L341.749 317.118L347.446 319L353.143 320.882L355.575 313.522L349.878 311.64ZM347.446 319V313H334.262V319V325H347.446V319ZM334.262 319L339.899 321.055L356.347 275.935L350.71 273.88L345.073 271.825L328.625 316.945L334.262 319ZM350.71 273.88V279.88H365.174V273.88V267.88H350.71V273.88ZM365.174 273.88L359.534 275.928L375.918 321.048L381.558 319L387.198 316.952L370.814 271.832L365.174 273.88ZM381.558 319V313H368.31V319V325H381.558V319ZM368.31 319L374.007 317.118L371.575 309.758L365.878 311.64L360.181 313.522L362.613 320.882L368.31 319ZM362.742 302.04L368.434 300.143L363.57 285.551L357.878 287.448L352.186 289.345L357.05 303.937L362.742 302.04ZM357.878 287.448L352.178 285.573L347.378 300.165L353.078 302.04L358.778 303.915L363.578 289.323L357.878 287.448ZM353.078 302.04V308.04H362.742V302.04V296.04H353.078V302.04ZM408.495 319L403.212 321.845L404.911 325H408.495V319ZM399.535 302.36L404.817 299.515L403.118 296.36H399.535V302.36ZM398.191 302.36V296.36H392.191V302.36H398.191ZM398.191 319V325H404.191V319H398.191ZM385.647 319H379.647V325H385.647V319ZM385.647 273.88V267.88H379.647V273.88H385.647ZM414.639 275.8L411.919 281.148L411.955 281.167L411.992 281.185L414.639 275.8ZM420.335 280.984L415.137 283.982L415.15 284.004L415.163 284.026L420.335 280.984ZM419.694 296.472L414.842 292.943L414.836 292.951L414.83 292.959L419.694 296.472ZM412.335 301.4L410.597 295.657L403.351 297.85L407.14 304.403L412.335 301.4ZM422.511 319V325H432.91L427.705 315.997L422.511 319ZM398.191 293.784H392.191V299.784H398.191V293.784ZM408.239 292.568L404.106 288.218L404.106 288.218L408.239 292.568ZM408.175 285.656L403.932 289.899L404.038 290.005L404.149 290.105L408.175 285.656ZM398.191 284.376V278.376H392.191V284.376H398.191ZM408.495 319L413.777 316.155L404.817 299.515L399.535 302.36L394.252 305.205L403.212 321.845L408.495 319ZM399.535 302.36V296.36H398.191V302.36V308.36H399.535V302.36ZM398.191 302.36H392.191V319H398.191H404.191V302.36H398.191ZM398.191 319V313H385.647V319V325H398.191V319ZM385.647 319H391.647V273.88H385.647H379.647V319H385.647ZM385.647 273.88V279.88H405.423V273.88V267.88H385.647V273.88ZM405.423 273.88V279.88C408.364 279.88 410.449 280.401 411.919 281.148L414.639 275.8L417.358 270.452C413.793 268.639 409.734 267.88 405.423 267.88V273.88ZM414.639 275.8L411.992 281.185C413.547 281.949 414.508 282.892 415.137 283.982L420.335 280.984L425.532 277.986C423.601 274.638 420.765 272.125 417.285 270.415L414.639 275.8ZM420.335 280.984L415.163 284.026C415.856 285.205 416.255 286.593 416.255 288.344H422.255H428.255C428.255 284.634 427.373 281.115 425.506 277.942L420.335 280.984ZM422.255 288.344H416.255C416.255 290.227 415.758 291.684 414.842 292.943L419.694 296.472L424.547 300.001C427.045 296.567 428.255 292.605 428.255 288.344H422.255ZM419.694 296.472L414.83 292.959C414.076 294.004 412.831 294.981 410.597 295.657L412.335 301.4L414.072 307.143C418.324 305.856 421.985 303.548 424.559 299.985L419.694 296.472ZM412.335 301.4L407.14 304.403L417.316 322.003L422.511 319L427.705 315.997L417.529 298.397L412.335 301.4ZM422.511 319V313H408.495V319V325H422.511V319ZM398.191 293.784V299.784H404.399V293.784V287.784H398.191V293.784ZM404.399 293.784V299.784C406.955 299.784 409.988 299.182 412.371 296.918L408.239 292.568L404.106 288.218C404.258 288.073 404.412 287.965 404.547 287.887C404.681 287.811 404.781 287.775 404.827 287.76C404.907 287.735 404.796 287.784 404.399 287.784V293.784ZM408.239 292.568L412.371 296.918C414.751 294.657 415.519 291.702 415.519 289.048H409.519H403.519C403.519 289.272 403.486 289.232 403.56 289.03C403.644 288.798 403.819 288.491 404.106 288.218L408.239 292.568ZM409.519 289.048H415.519C415.519 286.272 414.604 283.381 412.2 281.207L408.175 285.656L404.149 290.105C403.91 289.889 403.717 289.607 403.604 289.322C403.502 289.063 403.519 288.937 403.519 289.048H409.519ZM408.175 285.656L412.417 281.413C410.068 279.064 407.038 278.376 404.399 278.376V284.376V290.376C404.733 290.376 404.789 290.421 404.664 290.378C404.597 290.356 404.485 290.31 404.349 290.227C404.21 290.143 404.067 290.034 403.932 289.899L408.175 285.656ZM404.399 284.376V278.376H398.191V284.376V290.376H404.399V284.376ZM398.191 284.376H392.191V293.784H398.191H404.191V284.376H398.191ZM458.231 276.76L455.371 282.035L455.409 282.055L455.447 282.075L458.231 276.76ZM466.487 284.696L471.716 281.754L471.716 281.754L466.487 284.696ZM466.423 308.056L461.222 305.065L461.207 305.09L461.194 305.114L466.423 308.056ZM458.167 316.12L461.027 321.395L461.038 321.389L461.049 321.383L458.167 316.12ZM427.959 319H421.959V325H427.959V319ZM427.959 273.88V267.88H421.959V273.88H427.959ZM453.495 287.832L449.296 292.118L449.319 292.14L449.342 292.162L453.495 287.832ZM440.503 284.76V278.76H434.503V284.76H440.503ZM440.503 307.928H434.503V313.928H440.503V307.928ZM445.815 273.88V279.88C449.728 279.88 452.851 280.668 455.371 282.035L458.231 276.76L461.091 271.485C456.529 269.012 451.374 267.88 445.815 267.88V273.88ZM458.231 276.76L455.447 282.075C458.039 283.433 459.926 285.27 461.258 287.638L466.487 284.696L471.716 281.754C469.208 277.295 465.591 273.842 461.015 271.445L458.231 276.76ZM466.487 284.696L461.258 287.638C462.613 290.047 463.367 292.915 463.367 296.408H469.367H475.367C475.367 291.111 474.201 286.171 471.716 281.754L466.487 284.696ZM469.367 296.408H463.367C463.367 299.824 462.607 302.655 461.222 305.065L466.423 308.056L471.624 311.047C474.164 306.63 475.367 301.696 475.367 296.408H469.367ZM466.423 308.056L461.194 305.114C459.848 307.506 457.93 309.409 455.285 310.857L458.167 316.12L461.049 321.383C465.572 318.906 469.158 315.432 471.652 310.998L466.423 308.056ZM458.167 316.12L455.307 310.845C452.779 312.216 449.675 313 445.815 313V319V325C451.341 325 456.472 323.864 461.027 321.395L458.167 316.12ZM445.815 319V313H427.959V319V325H445.815V319ZM427.959 319H433.959V273.88H427.959H421.959V319H427.959ZM427.959 273.88V279.88H445.815V273.88V267.88H427.959V273.88ZM444.855 307.928V313.928C449.641 313.928 454.164 312.592 457.648 309.25L453.495 304.92L449.342 300.59C448.645 301.258 447.408 301.928 444.855 301.928V307.928ZM453.495 304.92L457.648 309.25C461.215 305.829 462.631 301.251 462.631 296.408H456.631H450.631C450.631 298.904 449.957 300 449.342 300.59L453.495 304.92ZM456.631 296.408H462.631C462.631 291.546 461.228 286.936 457.648 283.502L453.495 287.832L449.342 292.162C449.943 292.739 450.631 293.846 450.631 296.408H456.631ZM453.495 287.832L457.694 283.546C454.214 280.137 449.675 278.76 444.855 278.76V284.76V290.76C447.374 290.76 448.595 291.431 449.296 292.118L453.495 287.832ZM444.855 284.76V278.76H440.503V284.76V290.76H444.855V284.76ZM440.503 284.76H434.503V307.928H440.503H446.503V284.76H440.503ZM440.503 307.928V313.928H444.855V307.928V301.928H440.503V307.928Z" fill="#041E42" mask="url(#path-6-outside-1_10_14)"/>
<mask id="path-8-outside-2_10_14" maskUnits="userSpaceOnUse" x="174" y="18" width="142" height="58" fill="black">
<rect fill="white" x="174" y="18" width="142" height="58"/>
<path d="M233.506 24.88V70H220.962V45.104L212.45 70H201.954L193.378 44.912V70H180.834V24.88H196.002L207.33 54.192L218.402 24.88H233.506ZM253.191 60.4H267.207V70H240.647V24.88H253.191V60.4ZM300.884 46.832C303.529 47.4293 305.62 48.752 307.156 50.8C308.735 52.8053 309.524 55.1093 309.524 57.712C309.524 61.552 308.201 64.56 305.556 66.736C302.911 68.912 299.199 70 294.42 70H272.084V24.88H293.716C298.324 24.88 301.929 25.904 304.532 27.952C307.177 30 308.5 32.88 308.5 36.592C308.5 39.2373 307.796 41.456 306.388 43.248C305.023 44.9973 303.188 46.192 300.884 46.832ZM284.628 42.8H290.964C294.121 42.8 295.7 41.4987 295.7 38.896C295.7 36.208 294.121 34.864 290.964 34.864H284.628V42.8ZM291.924 59.888C295.081 59.888 296.66 58.5653 296.66 55.92C296.66 54.5547 296.233 53.5093 295.38 52.784C294.569 52.0587 293.396 51.696 291.86 51.696H284.628V59.888H291.924Z"/>
</mask>
<path d="M233.506 24.88V70H220.962V45.104L212.45 70H201.954L193.378 44.912V70H180.834V24.88H196.002L207.33 54.192L218.402 24.88H233.506ZM253.191 60.4H267.207V70H240.647V24.88H253.191V60.4ZM300.884 46.832C303.529 47.4293 305.62 48.752 307.156 50.8C308.735 52.8053 309.524 55.1093 309.524 57.712C309.524 61.552 308.201 64.56 305.556 66.736C302.911 68.912 299.199 70 294.42 70H272.084V24.88H293.716C298.324 24.88 301.929 25.904 304.532 27.952C307.177 30 308.5 32.88 308.5 36.592C308.5 39.2373 307.796 41.456 306.388 43.248C305.023 44.9973 303.188 46.192 300.884 46.832ZM284.628 42.8H290.964C294.121 42.8 295.7 41.4987 295.7 38.896C295.7 36.208 294.121 34.864 290.964 34.864H284.628V42.8ZM291.924 59.888C295.081 59.888 296.66 58.5653 296.66 55.92C296.66 54.5547 296.233 53.5093 295.38 52.784C294.569 52.0587 293.396 51.696 291.86 51.696H284.628V59.888H291.924Z" fill="#BF0D3E"/>
<path d="M233.506 24.88H239.506V18.88H233.506V24.88ZM233.506 70V76H239.506V70H233.506ZM220.962 70H214.962V76H220.962V70ZM220.962 45.104H226.962L215.285 43.1629L220.962 45.104ZM212.45 70V76H216.74L218.127 71.9411L212.45 70ZM201.954 70L196.277 71.9408L197.664 76H201.954V70ZM193.378 44.912L199.055 42.9712L187.378 44.912H193.378ZM193.378 70V76H199.378V70H193.378ZM180.834 70H174.834V76H180.834V70ZM180.834 24.88V18.88H174.834V24.88H180.834ZM196.002 24.88L201.599 22.7171L200.116 18.88H196.002V24.88ZM207.33 54.192L201.733 56.3549L207.394 71.0022L212.943 56.3122L207.33 54.192ZM218.402 24.88V18.88H214.255L212.789 22.7598L218.402 24.88ZM233.506 24.88H227.506V70H233.506H239.506V24.88H233.506ZM233.506 70V64H220.962V70V76H233.506V70ZM220.962 70H226.962V45.104H220.962H214.962V70H220.962ZM220.962 45.104L215.285 43.1629L206.773 68.0589L212.45 70L218.127 71.9411L226.639 47.0451L220.962 45.104ZM212.45 70V64H201.954V70V76H212.45V70ZM201.954 70L207.631 68.0592L199.055 42.9712L193.378 44.912L187.701 46.8528L196.277 71.9408L201.954 70ZM193.378 44.912H187.378V70H193.378H199.378V44.912H193.378ZM193.378 70V64H180.834V70V76H193.378V70ZM180.834 70H186.834V24.88H180.834H174.834V70H180.834ZM180.834 24.88V30.88H196.002V24.88V18.88H180.834V24.88ZM196.002 24.88L190.405 27.0429L201.733 56.3549L207.33 54.192L212.927 52.0291L201.599 22.7171L196.002 24.88ZM207.33 54.192L212.943 56.3122L224.015 27.0002L218.402 24.88L212.789 22.7598L201.717 52.0718L207.33 54.192ZM218.402 24.88V30.88H233.506V24.88V18.88H218.402V24.88ZM253.191 60.4H247.191V66.4H253.191V60.4ZM267.207 60.4H273.207V54.4H267.207V60.4ZM267.207 70V76H273.207V70H267.207ZM240.647 70H234.647V76H240.647V70ZM240.647 24.88V18.88H234.647V24.88H240.647ZM253.191 24.88H259.191V18.88H253.191V24.88ZM253.191 60.4V66.4H267.207V60.4V54.4H253.191V60.4ZM267.207 60.4H261.207V70H267.207H273.207V60.4H267.207ZM267.207 70V64H240.647V70V76H267.207V70ZM240.647 70H246.647V24.88H240.647H234.647V70H240.647ZM240.647 24.88V30.88H253.191V24.88V18.88H240.647V24.88ZM253.191 24.88H247.191V60.4H253.191H259.191V24.88H253.191ZM300.884 46.832L299.278 41.0509L299.562 52.6846L300.884 46.832ZM307.156 50.8L302.356 54.4L302.398 54.4562L302.442 54.5114L307.156 50.8ZM305.556 66.736L309.368 71.3697L309.368 71.3697L305.556 66.736ZM272.084 70H266.084V76H272.084V70ZM272.084 24.88V18.88H266.084V24.88H272.084ZM304.532 27.952L300.822 32.6672L300.84 32.6819L300.859 32.6963L304.532 27.952ZM306.388 43.248L301.67 39.5411L301.664 39.5487L301.658 39.5564L306.388 43.248ZM284.628 42.8H278.628V48.8H284.628V42.8ZM284.628 34.864V28.864H278.628V34.864H284.628ZM295.38 52.784L291.379 57.2554L291.436 57.3063L291.494 57.3556L295.38 52.784ZM284.628 51.696V45.696H278.628V51.696H284.628ZM284.628 59.888H278.628V65.888H284.628V59.888ZM300.884 46.832L299.562 52.6846C300.907 52.9883 301.729 53.5635 302.356 54.4L307.156 50.8L311.956 47.2C309.511 43.9405 306.152 41.8704 302.206 40.9794L300.884 46.832ZM307.156 50.8L302.442 54.5114C303.17 55.4364 303.524 56.4268 303.524 57.712H309.524H315.524C315.524 53.7919 314.3 50.1743 311.87 47.0886L307.156 50.8ZM309.524 57.712H303.524C303.524 60.0031 302.825 61.2131 301.744 62.1023L305.556 66.736L309.368 71.3697C313.577 67.9069 315.524 63.1009 315.524 57.712H309.524ZM305.556 66.736L301.744 62.1023C300.528 63.1025 298.351 64 294.42 64V70V76C300.046 76 305.293 74.7215 309.368 71.3697L305.556 66.736ZM294.42 70V64H272.084V70V76H294.42V70ZM272.084 70H278.084V24.88H272.084H266.084V70H272.084ZM272.084 24.88V30.88H293.716V24.88V18.88H272.084V24.88ZM293.716 24.88V30.88C297.496 30.88 299.622 31.7235 300.822 32.6672L304.532 27.952L308.242 23.2368C304.236 20.0845 299.152 18.88 293.716 18.88V24.88ZM304.532 27.952L300.859 32.6963C301.862 33.4727 302.5 34.5035 302.5 36.592H308.5H314.5C314.5 31.2565 312.493 26.5273 308.205 23.2077L304.532 27.952ZM308.5 36.592H302.5C302.5 38.1188 302.118 38.971 301.67 39.5411L306.388 43.248L311.106 46.9549C313.474 43.941 314.5 40.3559 314.5 36.592H308.5ZM306.388 43.248L301.658 39.5564C301.146 40.2124 300.446 40.7266 299.278 41.0509L300.884 46.832L302.49 52.6131C305.93 51.6574 308.899 49.7823 311.118 46.9396L306.388 43.248ZM284.628 42.8V48.8H290.964V42.8V36.8H284.628V42.8ZM290.964 42.8V48.8C293.216 48.8 296.02 48.3596 298.332 46.4538C300.866 44.365 301.7 41.4605 301.7 38.896H295.7H289.7C289.7 38.952 289.69 38.7284 289.842 38.3547C290.008 37.9443 290.3 37.5236 290.7 37.1942C291.433 36.5897 291.869 36.8 290.964 36.8V42.8ZM295.7 38.896H301.7C301.7 36.3519 300.908 33.4336 298.405 31.3034C296.088 29.3307 293.253 28.864 290.964 28.864V34.864V40.864C291.833 40.864 291.365 41.0693 290.627 40.4406C290.234 40.1063 289.964 39.6948 289.817 39.3195C289.684 38.9806 289.7 38.798 289.7 38.896H295.7ZM290.964 34.864V28.864H284.628V34.864V40.864H290.964V34.864ZM284.628 34.864H278.628V42.8H284.628H290.628V34.864H284.628ZM291.924 59.888V65.888C294.194 65.888 297.014 65.4346 299.329 63.4951C301.848 61.3853 302.66 58.4737 302.66 55.92H296.66H290.66C290.66 55.9971 290.647 55.7942 290.789 55.438C290.945 55.0451 291.226 54.6289 291.623 54.2969C292.359 53.6801 292.811 53.888 291.924 53.888V59.888ZM296.66 55.92H302.66C302.66 53.2163 301.752 50.3252 299.266 48.2124L295.38 52.784L291.494 57.3556C291.181 57.0899 290.932 56.74 290.785 56.3794C290.65 56.0486 290.66 55.8561 290.66 55.92H296.66ZM295.38 52.784L299.381 48.3126C297.09 46.2627 294.267 45.696 291.86 45.696V51.696V57.696C292.171 57.696 292.23 57.7344 292.12 57.7004C291.988 57.6597 291.696 57.5387 291.379 57.2554L295.38 52.784ZM291.86 51.696V45.696H284.628V51.696V57.696H291.86V51.696ZM284.628 51.696H278.628V59.888H284.628H290.628V51.696H284.628ZM284.628 59.888V65.888H291.924V59.888V53.888H284.628V59.888Z" fill="#041E42" mask="url(#path-8-outside-2_10_14)"/>
<defs>
<clipPath id="clip0_10_14">
<rect width="399" height="221" fill="white" transform="translate(46 65)"/>
</clipPath>
</defs>
</svg>
